/vscmnt/brussel_pixiu_data/_data_brussel/112/vsc11236/PredSimResults/SUBJ09mtu3D/worker1.mot
version=1
nRows=6
nColumns=50
inDegrees=yes
endheader
                time	         pelvis_tilt	         pelvis_list	     pelvis_rotation	           pelvis_tx	           pelvis_ty	           pelvis_tz	       hip_flexion_r	     hip_adduction_r	      hip_rotation_r	        knee_angle_r	       ankle_angle_r	         mtp_angle_r	       hip_flexion_l	     hip_adduction_l	      hip_rotation_l	        knee_angle_l	       ankle_angle_l	         mtp_angle_l	    lumbar_extension	      lumbar_bending	     lumbar_rotation	 ercspn_r/activation	 intobl_r/activation	 extobl_r/activation	    abd_r/activation	    add_r/activation	hamstrings_r/activation	bifemsh_r/activation	glut_max_r/activation	iliopsoas_r/activation	rect_fem_r/activation	  vasti_r/activation	gastroc_r/activation	 soleus_r/activation	tib_ant_r/activation	 ercspn_l/activation	 intobl_l/activation	 extobl_l/activation	    abd_l/activation	    add_l/activation	hamstrings_l/activation	bifemsh_l/activation	glut_max_l/activation	iliopsoas_l/activation	rect_fem_l/activation	  vasti_l/activation	gastroc_l/activation	 soleus_l/activation	tib_ant_l/activation	
          1.88325611	         -3.69552364	          1.58050379	         -7.91687295	          2.33523758	          0.98905778	          0.00284545	        -14.99878900	         -2.99727553	         -3.71510201	         -9.87285673	          4.00595161	         36.78740676	         28.09285587	         -0.57274097	         -6.73466758	         -5.64769809	          3.97448280	          0.24369430	        -13.83929719	          0.37284135	          4.53844001	          0.02619909	          0.01000219	          0.01000223	          0.02585682	          0.01219528	          0.02615272	          0.17841783	          0.01259727	          0.01192228	          0.01000419	          0.01000244	          0.31452874	          0.20957220	          0.01209195	          0.02528907	          0.14669882	          0.03576009	          0.01000052	          0.20057733	          0.05131064	          0.15975584	          0.07998251	          0.12429917	          0.01040933	          0.01000217	          0.02139174	          0.01165915	          0.30671289	
          1.89581115	         -3.70284112	          1.65589557	         -7.86578069	          2.35538840	          0.98697266	          0.00222117	        -15.60023810	         -3.26174206	         -4.21407506	        -10.77360847	          2.78874604	         38.45840950	         27.92960768	         -0.39744247	         -6.88696255	         -7.37550998	          3.59945460	          0.20811255	        -13.36624896	         -0.03968546	          4.69065148	          0.02166882	          0.01000112	          0.01000660	          0.02138256	          0.01008642	          0.02722263	          0.14754620	          0.01041907	          0.01000641	          0.01000218	          0.01000325	          0.28556295	          0.17713407	          0.01000020	          0.02091413	          0.12131398	          0.02957219	          0.07926451	          0.16845593	          0.05996325	          0.13211226	          0.10650082	          0.10279032	          0.01000093	          0.01000134	          0.01769052	          0.01209333	          0.34714185	
          1.90836619	         -3.69419082	          1.73311520	         -7.78205633	          2.37572945	          0.98523602	          0.00152607	        -15.97185260	         -3.54604398	         -4.73214521	        -12.11540615	          1.46411929	         40.02236462	         27.67750444	         -0.21714427	         -7.02274258	         -8.97136102	          3.04005713	          0.20111011	        -12.88719876	         -0.45672107	          4.82120576	          0.04073019	          0.01000083	          0.01000186	          0.01768252	          0.01000265	          0.02251541	          0.12201608	          0.01000107	          0.01011092	          0.01000474	          0.01000437	          0.24185797	          0.14648279	          0.01000032	          0.01823008	          0.10032171	          0.02445505	          0.14197245	          0.18650455	          0.05310166	          0.10925197	          0.13732444	          0.08500339	          0.01000149	          0.01000149	          0.01462955	          0.01000098	          0.39038084	
          1.92092123	         -3.67159588	          1.80269448	         -7.66659343	          2.39590030	          0.98405598	          0.00074848	        -16.00102516	         -3.84976427	         -5.26147528	        -14.05637562	          0.06770989	         41.30522064	         27.49759597	         -0.04586612	         -7.15140998	        -10.70635995	          2.52073371	          0.16496112	        -12.44402021	         -0.86734830	          4.92791920	          0.08313303	          0.01000123	          0.01000103	          0.01462275	          0.05089557	          0.01862769	          0.10090380	          0.01000069	          0.02662433	          0.01000210	          0.01000154	          0.20000673	          0.12113527	          0.01000031	          0.03249654	          0.08296197	          0.02022339	          0.19597600	          0.24400257	          0.04933845	          0.09034731	          0.16342056	          0.07029433	          0.01000183	          0.05765278	          0.01209888	          0.01000469	          0.40665774	
          1.93347628	         -3.63724721	          1.86050778	         -7.52344584	          2.41567857	          0.98358044	         -0.00008953	        -15.60338467	         -4.17744111	         -5.82182126	        -16.70965476	         -1.36545195	         42.05906082	         27.40872821	          0.10907671	         -7.26224423	        -12.64872294	          2.35711494	          0.12648235	        -12.05785600	         -1.26840462	          5.01021462	          0.09530437	          0.01000129	          0.01000128	          0.01209246	          0.12239018	          0.01540869	          0.08344509	          0.01000035	          0.05369475	          0.01000149	          0.01000070	          0.16539733	          0.10017389	          0.01000055	          0.02688473	          0.06860618	          0.01672401	          0.21797847	          0.27596973	          0.04587989	          0.07471396	          0.18803764	          0.05813055	          0.01000174	          0.15783402	          0.01000807	          0.01000456	          0.40410772	
          1.94603132	         -3.59479944	          1.89567617	         -7.35085850	          2.43493317	          0.98393473	         -0.00095417	        -14.72237673	         -4.53208625	         -6.44999965	        -20.15833176	         -2.75576033	         41.87400394	         27.29604604	          0.24976567	         -7.34752793	        -14.56461048	          2.50851335	          0.09366810	        -11.74012667	         -1.64958750	          5.06349767	          0.09819673	          0.01000104	          0.01000147	          0.01000020	          0.16881437	          0.01274672	          0.06900862	          0.01000025	          0.04441027	          0.01000128	          0.01000037	          0.13677677	          0.08283970	          0.01000039	          0.02223613	          0.05673454	          0.01383020	          0.21837256	          0.30139088	          0.04785137	          0.06178585	          0.19773316	          0.04807161	          0.01000166	          0.19278692	          0.01000341	          0.01000347	          0.37894594	
